<?xml version="1.0" encoding="UTF-8" standalone="no"?>
<!DOCTYPE svg PUBLIC "-//W3C//DTD SVG 1.1//EN"
 "http://www.w3.org/Graphics/SVG/1.1/DTD/svg11.dtd">
<!-- Generated by graphviz version 2.40.1 (20161225.0304)
 -->
<!-- Title: dependencies Pages: 1 -->
<svg width="504pt" height="284pt"
 viewBox="0.00 0.00 504.00 284.00" xmlns="http://www.w3.org/2000/svg" xmlns:xlink="http://www.w3.org/1999/xlink">
<g id="graph0" class="graph" transform="scale(1 1) rotate(0) translate(4 280)">
<title>dependencies</title>
<polygon fill="#ffffff" stroke="transparent" points="-4,4 -4,-280 500,-280 500,4 -4,4"/>
<text text-anchor="start" x="227.0091" y="-42.4" font-family="sans-serif" font-weight="bold" font-size="14.00" fill="#000000">Legend</text>
<polygon fill="#ffffb3" stroke="transparent" points="14,-10 14,-30 34,-30 34,-10 14,-10"/>
<text text-anchor="start" x="37.629" y="-15.4" font-family="sans-serif" font-size="14.00" fill="#000000"> &#160;Declarations</text>
<polygon fill="#8dd3c7" stroke="transparent" points="127,-10 127,-30 147,-30 147,-10 127,-10"/>
<text text-anchor="start" x="150.7251" y="-15.4" font-family="sans-serif" font-size="14.00" fill="#000000"> &#160;Module</text>
<polygon fill="#80b1d3" stroke="transparent" points="213,-10 213,-30 233,-30 233,-10 213,-10"/>
<text text-anchor="start" x="236.7812" y="-15.4" font-family="sans-serif" font-size="14.00" fill="#000000"> &#160;Bootstrap</text>
<polygon fill="#fdb462" stroke="transparent" points="310,-10 310,-30 330,-30 330,-10 310,-10"/>
<text text-anchor="start" x="333.6732" y="-15.4" font-family="sans-serif" font-size="14.00" fill="#000000"> &#160;Providers</text>
<polygon fill="#fb8072" stroke="transparent" points="406,-10 406,-30 426,-30 426,-10 406,-10"/>
<text text-anchor="start" x="429.7258" y="-15.4" font-family="sans-serif" font-size="14.00" fill="#000000"> &#160;Exports</text>
<g id="clust1" class="cluster">
<title>cluster_SharedModule</title>
<polygon fill="none" stroke="#000000" stroke-dasharray="1,5" points="121,-70 121,-268 375,-268 375,-70 121,-70"/>
</g>
<g id="clust2" class="cluster">
<title>cluster_SharedModule_declarations</title>
<polygon fill="none" stroke="#000000" points="133,-78 133,-130 363,-130 363,-78 133,-78"/>
</g>
<g id="clust6" class="cluster">
<title>cluster_SharedModule_exports</title>
<polygon fill="none" stroke="#000000" points="129,-208 129,-260 367,-260 367,-208 129,-208"/>
</g>
<!-- TableauComponent -->
<g id="node1" class="node">
<title>TableauComponent</title>
<polygon fill="#ffffb3" stroke="#000000" points="355.4201,-122 228.5799,-122 228.5799,-86 355.4201,-86 355.4201,-122"/>
<text text-anchor="middle" x="292" y="-99.8" font-family="Times,serif" font-size="14.00" fill="#000000">TableauComponent</text>
</g>
<!-- SharedModule -->
<g id="node3" class="node">
<title>SharedModule</title>
<polygon fill="#8dd3c7" stroke="#000000" points="282.4231,-187 279.4231,-191 258.4231,-191 255.4231,-187 183.5769,-187 183.5769,-151 282.4231,-151 282.4231,-187"/>
<text text-anchor="middle" x="233" y="-164.8" font-family="Times,serif" font-size="14.00" fill="#000000">SharedModule</text>
</g>
<!-- TableauComponent&#45;&gt;SharedModule -->
<g id="edge1" class="edge">
<title>TableauComponent&#45;&gt;SharedModule</title>
<path fill="none" stroke="#000000" d="M255.5007,-122.1061C255.5007,-122.1061 255.5007,-140.991 255.5007,-140.991"/>
<polygon fill="#000000" stroke="#000000" points="252.0008,-140.9909 255.5007,-150.991 259.0008,-140.991 252.0008,-140.9909"/>
</g>
<!-- TotalPipe -->
<g id="node2" class="node">
<title>TotalPipe</title>
<polygon fill="#ffffb3" stroke="#000000" points="211.4376,-122 140.5624,-122 140.5624,-86 211.4376,-86 211.4376,-122"/>
<text text-anchor="middle" x="176" y="-99.8" font-family="Times,serif" font-size="14.00" fill="#000000">TotalPipe</text>
</g>
<!-- TotalPipe&#45;&gt;SharedModule -->
<g id="edge2" class="edge">
<title>TotalPipe&#45;&gt;SharedModule</title>
<path fill="none" stroke="#000000" d="M197.5035,-122.1061C197.5035,-122.1061 197.5035,-140.991 197.5035,-140.991"/>
<polygon fill="#000000" stroke="#000000" points="194.0036,-140.9909 197.5035,-150.991 201.0036,-140.991 194.0036,-140.9909"/>
</g>
<!-- TableauComponent  -->
<g id="node4" class="node">
<title>TableauComponent </title>
<polygon fill="#fb8072" stroke="#000000" points="358.9194,-252 229.0806,-252 229.0806,-216 358.9194,-216 358.9194,-252"/>
<text text-anchor="middle" x="294" y="-229.8" font-family="Times,serif" font-size="14.00" fill="#000000">TableauComponent </text>
</g>
<!-- SharedModule&#45;&gt;TableauComponent  -->
<g id="edge3" class="edge">
<title>SharedModule&#45;&gt;TableauComponent </title>
<path fill="none" stroke="#000000" stroke-dasharray="5,2" d="M255.6257,-187.1061C255.6257,-187.1061 255.6257,-205.991 255.6257,-205.991"/>
<polygon fill="#000000" stroke="#000000" points="252.1258,-205.9909 255.6257,-215.991 259.1258,-205.991 252.1258,-205.9909"/>
</g>
<!-- TotalPipe  -->
<g id="node5" class="node">
<title>TotalPipe </title>
<polygon fill="#fb8072" stroke="#000000" points="210.9362,-252 137.0638,-252 137.0638,-216 210.9362,-216 210.9362,-252"/>
<text text-anchor="middle" x="174" y="-229.8" font-family="Times,serif" font-size="14.00" fill="#000000">TotalPipe </text>
</g>
<!-- SharedModule&#45;&gt;TotalPipe  -->
<g id="edge4" class="edge">
<title>SharedModule&#45;&gt;TotalPipe </title>
<path fill="none" stroke="#000000" stroke-dasharray="5,2" d="M197.3785,-187.1061C197.3785,-187.1061 197.3785,-205.991 197.3785,-205.991"/>
<polygon fill="#000000" stroke="#000000" points="193.8786,-205.9909 197.3785,-215.991 200.8786,-205.991 193.8786,-205.9909"/>
</g>
</g>
</svg>
