<?xml version="1.0" encoding="UTF-8" standalone="no"?>
<!DOCTYPE svg PUBLIC "-//W3C//DTD SVG 1.1//EN"
 "http://www.w3.org/Graphics/SVG/1.1/DTD/svg11.dtd">
<!-- Generated by graphviz version 2.40.1 (20161225.0304)
 -->
<!-- Title: dependencies Pages: 1 -->
<svg width="682pt" height="211pt"
 viewBox="0.00 0.00 682.00 211.00" xmlns="http://www.w3.org/2000/svg" xmlns:xlink="http://www.w3.org/1999/xlink">
<g id="graph0" class="graph" transform="scale(1 1) rotate(0) translate(4 207)">
<title>dependencies</title>
<polygon fill="#ffffff" stroke="transparent" points="-4,4 -4,-207 678,-207 678,4 -4,4"/>
<text text-anchor="start" x="316.0091" y="-42.4" font-family="sans-serif" font-weight="bold" font-size="14.00" fill="#000000">Legend</text>
<polygon fill="#ffffb3" stroke="transparent" points="103,-10 103,-30 123,-30 123,-10 103,-10"/>
<text text-anchor="start" x="126.629" y="-15.4" font-family="sans-serif" font-size="14.00" fill="#000000"> &#160;Declarations</text>
<polygon fill="#8dd3c7" stroke="transparent" points="216,-10 216,-30 236,-30 236,-10 216,-10"/>
<text text-anchor="start" x="239.7251" y="-15.4" font-family="sans-serif" font-size="14.00" fill="#000000"> &#160;Module</text>
<polygon fill="#80b1d3" stroke="transparent" points="302,-10 302,-30 322,-30 322,-10 302,-10"/>
<text text-anchor="start" x="325.7812" y="-15.4" font-family="sans-serif" font-size="14.00" fill="#000000"> &#160;Bootstrap</text>
<polygon fill="#fdb462" stroke="transparent" points="399,-10 399,-30 419,-30 419,-10 399,-10"/>
<text text-anchor="start" x="422.6732" y="-15.4" font-family="sans-serif" font-size="14.00" fill="#000000"> &#160;Providers</text>
<polygon fill="#fb8072" stroke="transparent" points="495,-10 495,-30 515,-30 515,-10 495,-10"/>
<text text-anchor="start" x="518.7258" y="-15.4" font-family="sans-serif" font-size="14.00" fill="#000000"> &#160;Exports</text>
<g id="clust1" class="cluster">
<title>cluster_PrestationsModule</title>
<polygon fill="none" stroke="#000000" stroke-dasharray="1,5" points="8,-70 8,-195 666,-195 666,-70 8,-70"/>
</g>
<g id="clust2" class="cluster">
<title>cluster_PrestationsModule_declarations</title>
<polygon fill="none" stroke="#000000" points="322,-78 322,-130 658,-130 658,-78 322,-78"/>
</g>
<g id="clust5" class="cluster">
<title>cluster_PrestationsModule_imports</title>
<polygon fill="none" stroke="#000000" points="16,-78 16,-130 314,-130 314,-78 16,-78"/>
</g>
<!-- ListPrestationsComponent -->
<g id="node1" class="node">
<title>ListPrestationsComponent</title>
<polygon fill="#ffffb3" stroke="#000000" points="650.0448,-122 485.9552,-122 485.9552,-86 650.0448,-86 650.0448,-122"/>
<text text-anchor="middle" x="568" y="-99.8" font-family="Times,serif" font-size="14.00" fill="#000000">ListPrestationsComponent</text>
</g>
<!-- PrestationsModule -->
<g id="node3" class="node">
<title>PrestationsModule</title>
<polygon fill="#8dd3c7" stroke="#000000" points="371.4832,-187 368.4832,-191 347.4832,-191 344.4832,-187 250.5168,-187 250.5168,-151 371.4832,-151 371.4832,-187"/>
<text text-anchor="middle" x="311" y="-164.8" font-family="Times,serif" font-size="14.00" fill="#000000">PrestationsModule</text>
</g>
<!-- ListPrestationsComponent&#45;&gt;PrestationsModule -->
<g id="edge1" class="edge">
<title>ListPrestationsComponent&#45;&gt;PrestationsModule</title>
<path fill="none" stroke="#000000" d="M568,-122.1061C568,-141.3391 568,-169 568,-169 568,-169 381.58,-169 381.58,-169"/>
<polygon fill="#000000" stroke="#000000" points="381.58,-165.5001 371.58,-169 381.5799,-172.5001 381.58,-165.5001"/>
</g>
<!-- PrestationComponent -->
<g id="node2" class="node">
<title>PrestationComponent</title>
<polygon fill="#ffffb3" stroke="#000000" points="467.8216,-122 330.1784,-122 330.1784,-86 467.8216,-86 467.8216,-122"/>
<text text-anchor="middle" x="399" y="-99.8" font-family="Times,serif" font-size="14.00" fill="#000000">PrestationComponent</text>
</g>
<!-- PrestationComponent&#45;&gt;PrestationsModule -->
<g id="edge2" class="edge">
<title>PrestationComponent&#45;&gt;PrestationsModule</title>
<path fill="none" stroke="#000000" d="M350.9155,-122.1061C350.9155,-122.1061 350.9155,-140.991 350.9155,-140.991"/>
<polygon fill="#000000" stroke="#000000" points="347.4156,-140.9909 350.9155,-150.991 354.4156,-140.991 347.4156,-140.9909"/>
</g>
<!-- PrestationsRoutingModule -->
<g id="node4" class="node">
<title>PrestationsRoutingModule</title>
<polygon fill="#8dd3c7" stroke="#000000" points="306.101,-122 303.101,-126 282.101,-126 279.101,-122 139.899,-122 139.899,-86 306.101,-86 306.101,-122"/>
<text text-anchor="middle" x="223" y="-99.8" font-family="Times,serif" font-size="14.00" fill="#000000">PrestationsRoutingModule</text>
</g>
<!-- PrestationsRoutingModule&#45;&gt;PrestationsModule -->
<g id="edge3" class="edge">
<title>PrestationsRoutingModule&#45;&gt;PrestationsModule</title>
<path fill="none" stroke="#000000" d="M278.2795,-122.1061C278.2795,-122.1061 278.2795,-140.991 278.2795,-140.991"/>
<polygon fill="#000000" stroke="#000000" points="274.7795,-140.9909 278.2795,-150.991 281.7795,-140.991 274.7795,-140.9909"/>
</g>
<!-- SharedModule -->
<g id="node5" class="node">
<title>SharedModule</title>
<polygon fill="#8dd3c7" stroke="#000000" points="122.4231,-122 119.4231,-126 98.4231,-126 95.4231,-122 23.5769,-122 23.5769,-86 122.4231,-86 122.4231,-122"/>
<text text-anchor="middle" x="73" y="-99.8" font-family="Times,serif" font-size="14.00" fill="#000000">SharedModule</text>
</g>
<!-- SharedModule&#45;&gt;PrestationsModule -->
<g id="edge4" class="edge">
<title>SharedModule&#45;&gt;PrestationsModule</title>
<path fill="none" stroke="#000000" d="M73,-122.1061C73,-141.3391 73,-169 73,-169 73,-169 240.3267,-169 240.3267,-169"/>
<polygon fill="#000000" stroke="#000000" points="240.3268,-172.5001 250.3267,-169 240.3267,-165.5001 240.3268,-172.5001"/>
</g>
</g>
</svg>
