<?xml version="1.0" encoding="UTF-8" standalone="no"?>
<!DOCTYPE svg PUBLIC "-//W3C//DTD SVG 1.1//EN"
 "http://www.w3.org/Graphics/SVG/1.1/DTD/svg11.dtd">
<!-- Generated by graphviz version 2.40.1 (20161225.0304)
 -->
<!-- Title: dependencies Pages: 1 -->
<svg width="2572pt" height="360pt"
 viewBox="0.00 0.00 2572.00 360.00" xmlns="http://www.w3.org/2000/svg" xmlns:xlink="http://www.w3.org/1999/xlink">
<g id="graph0" class="graph" transform="scale(1 1) rotate(0) translate(4 356)">
<title>dependencies</title>
<polygon fill="#ffffff" stroke="transparent" points="-4,4 -4,-356 2568,-356 2568,4 -4,4"/>
<text text-anchor="start" x="1261.0091" y="-42.4" font-family="sans-serif" font-weight="bold" font-size="14.00" fill="#000000">Legend</text>
<polygon fill="#ffffb3" stroke="transparent" points="1048,-10 1048,-30 1068,-30 1068,-10 1048,-10"/>
<text text-anchor="start" x="1071.629" y="-15.4" font-family="sans-serif" font-size="14.00" fill="#000000"> &#160;Declarations</text>
<polygon fill="#8dd3c7" stroke="transparent" points="1161,-10 1161,-30 1181,-30 1181,-10 1161,-10"/>
<text text-anchor="start" x="1184.7251" y="-15.4" font-family="sans-serif" font-size="14.00" fill="#000000"> &#160;Module</text>
<polygon fill="#80b1d3" stroke="transparent" points="1247,-10 1247,-30 1267,-30 1267,-10 1247,-10"/>
<text text-anchor="start" x="1270.7812" y="-15.4" font-family="sans-serif" font-size="14.00" fill="#000000"> &#160;Bootstrap</text>
<polygon fill="#fdb462" stroke="transparent" points="1344,-10 1344,-30 1364,-30 1364,-10 1344,-10"/>
<text text-anchor="start" x="1367.6732" y="-15.4" font-family="sans-serif" font-size="14.00" fill="#000000"> &#160;Providers</text>
<polygon fill="#fb8072" stroke="transparent" points="1440,-10 1440,-30 1460,-30 1460,-10 1440,-10"/>
<text text-anchor="start" x="1463.7258" y="-15.4" font-family="sans-serif" font-size="14.00" fill="#000000"> &#160;Exports</text>
<g id="clust1" class="cluster">
<title>cluster_AppModule</title>
<polygon fill="none" stroke="#000000" stroke-dasharray="1,5" points="528,-146 528,-344 1182,-344 1182,-146 528,-146"/>
</g>
<g id="clust2" class="cluster">
<title>cluster_AppModule_declarations</title>
<polygon fill="none" stroke="#000000" points="1052,-154 1052,-206 1174,-206 1174,-154 1052,-154"/>
</g>
<g id="clust4" class="cluster">
<title>cluster_AppModule_imports</title>
<polygon fill="none" stroke="#000000" points="536,-154 536,-206 1044,-206 1044,-154 536,-154"/>
</g>
<g id="clust6" class="cluster">
<title>cluster_AppModule_bootstrap</title>
<polygon fill="none" stroke="#000000" points="756,-284 756,-336 880,-336 880,-284 756,-284"/>
</g>
<g id="clust14" class="cluster">
<title>cluster_LoginModule</title>
<polygon fill="none" stroke="#000000" stroke-dasharray="1,5" points="664,-70 664,-138 972,-138 972,-70 664,-70"/>
</g>
<g id="clust15" class="cluster">
<title>cluster_LoginModule_declarations</title>
<polygon fill="none" stroke="#000000" points="834,-78 834,-130 964,-130 964,-78 834,-78"/>
</g>
<g id="clust17" class="cluster">
<title>cluster_LoginModule_imports</title>
<polygon fill="none" stroke="#000000" points="672,-78 672,-130 826,-130 826,-78 672,-78"/>
</g>
<g id="clust27" class="cluster">
<title>cluster_PageNotFoundModule</title>
<polygon fill="none" stroke="#000000" stroke-dasharray="1,5" points="980,-70 980,-138 1390,-138 1390,-70 980,-70"/>
</g>
<g id="clust28" class="cluster">
<title>cluster_PageNotFoundModule_declarations</title>
<polygon fill="none" stroke="#000000" points="1200,-78 1200,-130 1382,-130 1382,-78 1200,-78"/>
</g>
<g id="clust30" class="cluster">
<title>cluster_PageNotFoundModule_imports</title>
<polygon fill="none" stroke="#000000" points="988,-78 988,-130 1192,-130 1192,-78 988,-78"/>
</g>
<g id="clust40" class="cluster">
<title>cluster_PrestationsModule</title>
<polygon fill="none" stroke="#000000" stroke-dasharray="1,5" points="1398,-70 1398,-206 2056,-206 2056,-70 1398,-70"/>
</g>
<g id="clust41" class="cluster">
<title>cluster_PrestationsModule_declarations</title>
<polygon fill="none" stroke="#000000" points="1406,-78 1406,-130 1742,-130 1742,-78 1406,-78"/>
</g>
<g id="clust44" class="cluster">
<title>cluster_PrestationsModule_imports</title>
<polygon fill="none" stroke="#000000" points="1750,-78 1750,-130 2048,-130 2048,-78 1750,-78"/>
</g>
<g id="clust54" class="cluster">
<title>cluster_SharedModule</title>
<polygon fill="none" stroke="#000000" stroke-dasharray="1,5" points="2064,-146 2064,-214 2556,-214 2556,-146 2064,-146"/>
</g>
<g id="clust55" class="cluster">
<title>cluster_SharedModule_declarations</title>
<polygon fill="none" stroke="#000000" points="2318,-154 2318,-206 2548,-206 2548,-154 2318,-154"/>
</g>
<g id="clust59" class="cluster">
<title>cluster_SharedModule_exports</title>
<polygon fill="none" stroke="#000000" points="2072,-154 2072,-206 2310,-206 2310,-154 2072,-154"/>
</g>
<g id="clust62" class="cluster">
<title>cluster_UiModule</title>
<polygon fill="none" stroke="#000000" stroke-dasharray="1,5" points="8,-70 8,-138 656,-138 656,-70 8,-70"/>
</g>
<g id="clust63" class="cluster">
<title>cluster_UiModule_declarations</title>
<polygon fill="none" stroke="#000000" points="138,-78 138,-130 648,-130 648,-78 138,-78"/>
</g>
<g id="clust69" class="cluster">
<title>cluster_UiModule_exports</title>
<polygon fill="none" stroke="#000000" points="16,-78 16,-130 130,-130 130,-78 16,-78"/>
</g>
<!-- AppComponent -->
<g id="node1" class="node">
<title>AppComponent</title>
<polygon fill="#ffffb3" stroke="#000000" points="1165.9399,-198 1060.0601,-198 1060.0601,-162 1165.9399,-162 1165.9399,-198"/>
<text text-anchor="middle" x="1113" y="-175.8" font-family="Times,serif" font-size="14.00" fill="#000000">AppComponent</text>
</g>
<!-- AppModule -->
<g id="node2" class="node">
<title>AppModule</title>
<polygon fill="#8dd3c7" stroke="#000000" points="859.6571,-263 856.6571,-267 835.6571,-267 832.6571,-263 776.3429,-263 776.3429,-227 859.6571,-227 859.6571,-263"/>
<text text-anchor="middle" x="818" y="-240.8" font-family="Times,serif" font-size="14.00" fill="#000000">AppModule</text>
</g>
<!-- AppComponent&#45;&gt;AppModule -->
<g id="edge1" class="edge">
<title>AppComponent&#45;&gt;AppModule</title>
<path fill="none" stroke="#000000" d="M1113,-198.2843C1113,-219.3211 1113,-251 1113,-251 1113,-251 869.953,-251 869.953,-251"/>
<polygon fill="#000000" stroke="#000000" points="869.9531,-247.5001 859.953,-251 869.953,-254.5001 869.9531,-247.5001"/>
</g>
<!-- AppComponent  -->
<g id="node7" class="node">
<title>AppComponent </title>
<polygon fill="#80b1d3" stroke="#000000" points="872.439,-328 763.561,-328 763.561,-292 872.439,-292 872.439,-328"/>
<text text-anchor="middle" x="818" y="-305.8" font-family="Times,serif" font-size="14.00" fill="#000000">AppComponent </text>
</g>
<!-- AppModule&#45;&gt;AppComponent  -->
<g id="edge6" class="edge">
<title>AppModule&#45;&gt;AppComponent </title>
<path fill="none" stroke="#000000" stroke-dasharray="1,5" d="M818,-263.1061C818,-263.1061 818,-281.991 818,-281.991"/>
<polygon fill="#000000" stroke="#000000" points="814.5001,-281.9909 818,-291.991 821.5001,-281.991 814.5001,-281.9909"/>
</g>
<!-- AppRoutingModule -->
<g id="node3" class="node">
<title>AppRoutingModule</title>
<polygon fill="#8dd3c7" stroke="#000000" points="1036.2744,-198 1033.2744,-202 1012.2744,-202 1009.2744,-198 907.7256,-198 907.7256,-162 1036.2744,-162 1036.2744,-198"/>
<text text-anchor="middle" x="972" y="-175.8" font-family="Times,serif" font-size="14.00" fill="#000000">AppRoutingModule</text>
</g>
<!-- AppRoutingModule&#45;&gt;AppModule -->
<g id="edge2" class="edge">
<title>AppRoutingModule&#45;&gt;AppModule</title>
<path fill="none" stroke="#000000" d="M972,-198.0225C972,-215.3734 972,-239 972,-239 972,-239 869.6746,-239 869.6746,-239"/>
<polygon fill="#000000" stroke="#000000" points="869.6747,-235.5001 859.6746,-239 869.6746,-242.5001 869.6747,-235.5001"/>
</g>
<!-- LoginModule -->
<g id="node4" class="node">
<title>LoginModule</title>
<polygon fill="#8dd3c7" stroke="#000000" points="728.493,-198 725.493,-202 704.493,-202 701.493,-198 635.507,-198 635.507,-162 728.493,-162 728.493,-198"/>
<text text-anchor="middle" x="682" y="-175.8" font-family="Times,serif" font-size="14.00" fill="#000000">LoginModule</text>
</g>
<!-- LoginModule&#45;&gt;AppModule -->
<g id="edge3" class="edge">
<title>LoginModule&#45;&gt;AppModule</title>
<path fill="none" stroke="#000000" d="M682,-198.0225C682,-215.3734 682,-239 682,-239 682,-239 766.0858,-239 766.0858,-239"/>
<polygon fill="#000000" stroke="#000000" points="766.0858,-242.5001 776.0858,-239 766.0858,-235.5001 766.0858,-242.5001"/>
</g>
<!-- PageNotFoundModule -->
<g id="node5" class="node">
<title>PageNotFoundModule</title>
<polygon fill="#8dd3c7" stroke="#000000" points="889.5421,-198 886.5421,-202 865.5421,-202 862.5421,-198 746.4579,-198 746.4579,-162 889.5421,-162 889.5421,-198"/>
<text text-anchor="middle" x="818" y="-175.8" font-family="Times,serif" font-size="14.00" fill="#000000">PageNotFoundModule</text>
</g>
<!-- PageNotFoundModule&#45;&gt;AppModule -->
<g id="edge4" class="edge">
<title>PageNotFoundModule&#45;&gt;AppModule</title>
<path fill="none" stroke="#000000" d="M818,-198.1061C818,-198.1061 818,-216.991 818,-216.991"/>
<polygon fill="#000000" stroke="#000000" points="814.5001,-216.9909 818,-226.991 821.5001,-216.991 814.5001,-216.9909"/>
</g>
<!-- UiModule -->
<g id="node6" class="node">
<title>UiModule</title>
<polygon fill="#8dd3c7" stroke="#000000" points="617.5484,-198 614.5484,-202 593.5484,-202 590.5484,-198 544.4516,-198 544.4516,-162 617.5484,-162 617.5484,-198"/>
<text text-anchor="middle" x="581" y="-175.8" font-family="Times,serif" font-size="14.00" fill="#000000">UiModule</text>
</g>
<!-- UiModule&#45;&gt;AppModule -->
<g id="edge5" class="edge">
<title>UiModule&#45;&gt;AppModule</title>
<path fill="none" stroke="#000000" d="M581,-198.2843C581,-219.3211 581,-251 581,-251 581,-251 766.1747,-251 766.1747,-251"/>
<polygon fill="#000000" stroke="#000000" points="766.1747,-254.5001 776.1747,-251 766.1747,-247.5001 766.1747,-254.5001"/>
</g>
<!-- UiComponent  -->
<g id="node25" class="node">
<title>UiComponent </title>
<polygon fill="#fb8072" stroke="#000000" points="122.3297,-122 23.6703,-122 23.6703,-86 122.3297,-86 122.3297,-122"/>
<text text-anchor="middle" x="73" y="-99.8" font-family="Times,serif" font-size="14.00" fill="#000000">UiComponent </text>
</g>
<!-- UiModule&#45;&gt;UiComponent  -->
<g id="edge23" class="edge">
<title>UiModule&#45;&gt;UiComponent </title>
<path fill="none" stroke="#000000" stroke-dasharray="5,2" d="M544.0567,-191C427.1572,-191 73,-191 73,-191 73,-191 73,-132.0265 73,-132.0265"/>
<polygon fill="#000000" stroke="#000000" points="76.5001,-132.0264 73,-122.0265 69.5001,-132.0265 76.5001,-132.0264"/>
</g>
<!-- LoginComponent -->
<g id="node8" class="node">
<title>LoginComponent</title>
<polygon fill="#ffffb3" stroke="#000000" points="956.2758,-122 841.7242,-122 841.7242,-86 956.2758,-86 956.2758,-122"/>
<text text-anchor="middle" x="899" y="-99.8" font-family="Times,serif" font-size="14.00" fill="#000000">LoginComponent</text>
</g>
<!-- LoginComponent&#45;&gt;LoginModule -->
<g id="edge7" class="edge">
<title>LoginComponent&#45;&gt;LoginModule</title>
<path fill="none" stroke="#000000" d="M853.6518,-122.207C853.6518,-127.5549 853.6518,-132 853.6518,-132 853.6518,-132 712.3125,-132 712.3125,-132 712.3125,-132 712.3125,-151.8533 712.3125,-151.8533"/>
<polygon fill="#000000" stroke="#000000" points="708.8126,-151.8532 712.3125,-161.8533 715.8126,-151.8533 708.8126,-151.8532"/>
</g>
<!-- LoginRoutingModule -->
<g id="node9" class="node">
<title>LoginRoutingModule</title>
<polygon fill="#8dd3c7" stroke="#000000" points="818.1108,-122 815.1108,-126 794.1108,-126 791.1108,-122 679.8892,-122 679.8892,-86 818.1108,-86 818.1108,-122"/>
<text text-anchor="middle" x="749" y="-99.8" font-family="Times,serif" font-size="14.00" fill="#000000">LoginRoutingModule</text>
</g>
<!-- LoginRoutingModule&#45;&gt;LoginModule -->
<g id="edge8" class="edge">
<title>LoginRoutingModule&#45;&gt;LoginModule</title>
<path fill="none" stroke="#000000" d="M696.1286,-122.0109C696.1286,-122.0109 696.1286,-151.855 696.1286,-151.855"/>
<polygon fill="#000000" stroke="#000000" points="692.6287,-151.8549 696.1286,-161.855 699.6287,-151.855 692.6287,-151.8549"/>
</g>
<!-- PageNotFoundComponent -->
<g id="node10" class="node">
<title>PageNotFoundComponent</title>
<polygon fill="#ffffb3" stroke="#000000" points="1373.8243,-122 1208.1757,-122 1208.1757,-86 1373.8243,-86 1373.8243,-122"/>
<text text-anchor="middle" x="1291" y="-99.8" font-family="Times,serif" font-size="14.00" fill="#000000">PageNotFoundComponent</text>
</g>
<!-- PageNotFoundComponent&#45;&gt;PageNotFoundModule -->
<g id="edge9" class="edge">
<title>PageNotFoundComponent&#45;&gt;PageNotFoundModule</title>
<path fill="none" stroke="#000000" d="M1291,-122.1467C1291,-135.7395 1291,-152 1291,-152 1291,-152 877.7311,-152 877.7311,-152 877.7311,-152 877.7311,-152.9793 877.7311,-152.9793"/>
<polygon fill="#000000" stroke="#000000" points="874.2312,-151.793 877.7311,-161.793 881.2312,-151.7931 874.2312,-151.793"/>
</g>
<!-- PageNotFoundRoutingModule -->
<g id="node11" class="node">
<title>PageNotFoundRoutingModule</title>
<polygon fill="#8dd3c7" stroke="#000000" points="1184.1595,-122 1181.1595,-126 1160.1595,-126 1157.1595,-122 995.8405,-122 995.8405,-86 1184.1595,-86 1184.1595,-122"/>
<text text-anchor="middle" x="1090" y="-99.8" font-family="Times,serif" font-size="14.00" fill="#000000">PageNotFoundRoutingModule</text>
</g>
<!-- PageNotFoundRoutingModule&#45;&gt;PageNotFoundModule -->
<g id="edge10" class="edge">
<title>PageNotFoundRoutingModule&#45;&gt;PageNotFoundModule</title>
<path fill="none" stroke="#000000" d="M1016.0288,-122.1097C1016.0288,-131.897 1016.0288,-142 1016.0288,-142 1016.0288,-142 865.6915,-142 865.6915,-142 865.6915,-142 865.6915,-151.8903 865.6915,-151.8903"/>
<polygon fill="#000000" stroke="#000000" points="862.1915,-151.8903 865.6915,-161.8903 869.1915,-151.8904 862.1915,-151.8903"/>
</g>
<!-- ListPrestationsComponent -->
<g id="node12" class="node">
<title>ListPrestationsComponent</title>
<polygon fill="#ffffb3" stroke="#000000" points="1734.0448,-122 1569.9552,-122 1569.9552,-86 1734.0448,-86 1734.0448,-122"/>
<text text-anchor="middle" x="1652" y="-99.8" font-family="Times,serif" font-size="14.00" fill="#000000">ListPrestationsComponent</text>
</g>
<!-- PrestationsModule -->
<g id="node14" class="node">
<title>PrestationsModule</title>
<polygon fill="#8dd3c7" stroke="#000000" points="1806.4832,-198 1803.4832,-202 1782.4832,-202 1779.4832,-198 1685.5168,-198 1685.5168,-162 1806.4832,-162 1806.4832,-198"/>
<text text-anchor="middle" x="1746" y="-175.8" font-family="Times,serif" font-size="14.00" fill="#000000">PrestationsModule</text>
</g>
<!-- ListPrestationsComponent&#45;&gt;PrestationsModule -->
<g id="edge11" class="edge">
<title>ListPrestationsComponent&#45;&gt;PrestationsModule</title>
<path fill="none" stroke="#000000" d="M1709.8903,-122.0109C1709.8903,-122.0109 1709.8903,-151.855 1709.8903,-151.855"/>
<polygon fill="#000000" stroke="#000000" points="1706.3903,-151.8549 1709.8903,-161.855 1713.3903,-151.855 1706.3903,-151.8549"/>
</g>
<!-- PrestationComponent -->
<g id="node13" class="node">
<title>PrestationComponent</title>
<polygon fill="#ffffb3" stroke="#000000" points="1551.8216,-122 1414.1784,-122 1414.1784,-86 1551.8216,-86 1551.8216,-122"/>
<text text-anchor="middle" x="1483" y="-99.8" font-family="Times,serif" font-size="14.00" fill="#000000">PrestationComponent</text>
</g>
<!-- PrestationComponent&#45;&gt;PrestationsModule -->
<g id="edge12" class="edge">
<title>PrestationComponent&#45;&gt;PrestationsModule</title>
<path fill="none" stroke="#000000" d="M1483,-122.0109C1483,-144.4852 1483,-180 1483,-180 1483,-180 1675.3323,-180 1675.3323,-180"/>
<polygon fill="#000000" stroke="#000000" points="1675.3323,-183.5001 1685.3323,-180 1675.3322,-176.5001 1675.3323,-183.5001"/>
</g>
<!-- PrestationsRoutingModule -->
<g id="node15" class="node">
<title>PrestationsRoutingModule</title>
<polygon fill="#8dd3c7" stroke="#000000" points="1924.101,-122 1921.101,-126 1900.101,-126 1897.101,-122 1757.899,-122 1757.899,-86 1924.101,-86 1924.101,-122"/>
<text text-anchor="middle" x="1841" y="-99.8" font-family="Times,serif" font-size="14.00" fill="#000000">PrestationsRoutingModule</text>
</g>
<!-- PrestationsRoutingModule&#45;&gt;PrestationsModule -->
<g id="edge13" class="edge">
<title>PrestationsRoutingModule&#45;&gt;PrestationsModule</title>
<path fill="none" stroke="#000000" d="M1782.2206,-122.0109C1782.2206,-122.0109 1782.2206,-151.855 1782.2206,-151.855"/>
<polygon fill="#000000" stroke="#000000" points="1778.7206,-151.8549 1782.2206,-161.855 1785.7206,-151.855 1778.7206,-151.8549"/>
</g>
<!-- SharedModule -->
<g id="node16" class="node">
<title>SharedModule</title>
<polygon fill="#8dd3c7" stroke="#000000" points="2040.4231,-122 2037.4231,-126 2016.4231,-126 2013.4231,-122 1941.5769,-122 1941.5769,-86 2040.4231,-86 2040.4231,-122"/>
<text text-anchor="middle" x="1991" y="-99.8" font-family="Times,serif" font-size="14.00" fill="#000000">SharedModule</text>
</g>
<!-- SharedModule&#45;&gt;PrestationsModule -->
<g id="edge14" class="edge">
<title>SharedModule&#45;&gt;PrestationsModule</title>
<path fill="none" stroke="#000000" d="M1991,-122.0109C1991,-144.4852 1991,-180 1991,-180 1991,-180 1816.5618,-180 1816.5618,-180"/>
<polygon fill="#000000" stroke="#000000" points="1816.5618,-176.5001 1806.5618,-180 1816.5618,-183.5001 1816.5618,-176.5001"/>
</g>
<!-- TableauComponent  -->
<g id="node19" class="node">
<title>TableauComponent </title>
<polygon fill="#fb8072" stroke="#000000" points="2301.9194,-198 2172.0806,-198 2172.0806,-162 2301.9194,-162 2301.9194,-198"/>
<text text-anchor="middle" x="2237" y="-175.8" font-family="Times,serif" font-size="14.00" fill="#000000">TableauComponent </text>
</g>
<!-- SharedModule&#45;&gt;TableauComponent  -->
<g id="edge17" class="edge">
<title>SharedModule&#45;&gt;TableauComponent </title>
<path fill="none" stroke="#000000" stroke-dasharray="5,2" d="M2040.4859,-108C2112.3219,-108 2237,-108 2237,-108 2237,-108 2237,-151.8314 2237,-151.8314"/>
<polygon fill="#000000" stroke="#000000" points="2233.5001,-151.8313 2237,-161.8314 2240.5001,-151.8314 2233.5001,-151.8313"/>
</g>
<!-- TotalPipe  -->
<g id="node20" class="node">
<title>TotalPipe </title>
<polygon fill="#fb8072" stroke="#000000" points="2153.9362,-198 2080.0638,-198 2080.0638,-162 2153.9362,-162 2153.9362,-198"/>
<text text-anchor="middle" x="2117" y="-175.8" font-family="Times,serif" font-size="14.00" fill="#000000">TotalPipe </text>
</g>
<!-- SharedModule&#45;&gt;TotalPipe  -->
<g id="edge18" class="edge">
<title>SharedModule&#45;&gt;TotalPipe </title>
<path fill="none" stroke="#000000" stroke-dasharray="5,2" d="M2040.4369,-115C2075.7365,-115 2117,-115 2117,-115 2117,-115 2117,-151.8939 2117,-151.8939"/>
<polygon fill="#000000" stroke="#000000" points="2113.5001,-151.8938 2117,-161.8939 2120.5001,-151.8939 2113.5001,-151.8938"/>
</g>
<!-- TableauComponent -->
<g id="node17" class="node">
<title>TableauComponent</title>
<polygon fill="#ffffb3" stroke="#000000" points="2540.4201,-198 2413.5799,-198 2413.5799,-162 2540.4201,-162 2540.4201,-198"/>
<text text-anchor="middle" x="2477" y="-175.8" font-family="Times,serif" font-size="14.00" fill="#000000">TableauComponent</text>
</g>
<!-- TableauComponent&#45;&gt;SharedModule -->
<g id="edge15" class="edge">
<title>TableauComponent&#45;&gt;SharedModule</title>
<path fill="none" stroke="#000000" d="M2477,-161.7616C2477,-136.5171 2477,-94 2477,-94 2477,-94 2050.2748,-94 2050.2748,-94"/>
<polygon fill="#000000" stroke="#000000" points="2050.2748,-90.5001 2040.2748,-94 2050.2748,-97.5001 2050.2748,-90.5001"/>
</g>
<!-- TotalPipe -->
<g id="node18" class="node">
<title>TotalPipe</title>
<polygon fill="#ffffb3" stroke="#000000" points="2396.4376,-198 2325.5624,-198 2325.5624,-162 2396.4376,-162 2396.4376,-198"/>
<text text-anchor="middle" x="2361" y="-175.8" font-family="Times,serif" font-size="14.00" fill="#000000">TotalPipe</text>
</g>
<!-- TotalPipe&#45;&gt;SharedModule -->
<g id="edge16" class="edge">
<title>TotalPipe&#45;&gt;SharedModule</title>
<path fill="none" stroke="#000000" d="M2361,-161.6772C2361,-138.3398 2361,-101 2361,-101 2361,-101 2050.5159,-101 2050.5159,-101"/>
<polygon fill="#000000" stroke="#000000" points="2050.516,-97.5001 2040.5159,-101 2050.5159,-104.5001 2050.516,-97.5001"/>
</g>
<!-- FooterComponent -->
<g id="node21" class="node">
<title>FooterComponent</title>
<polygon fill="#ffffb3" stroke="#000000" points="639.8809,-122 522.1191,-122 522.1191,-86 639.8809,-86 639.8809,-122"/>
<text text-anchor="middle" x="581" y="-99.8" font-family="Times,serif" font-size="14.00" fill="#000000">FooterComponent</text>
</g>
<!-- FooterComponent&#45;&gt;UiModule -->
<g id="edge19" class="edge">
<title>FooterComponent&#45;&gt;UiModule</title>
<path fill="none" stroke="#000000" d="M581,-122.0109C581,-122.0109 581,-151.855 581,-151.855"/>
<polygon fill="#000000" stroke="#000000" points="577.5001,-151.8549 581,-161.855 584.5001,-151.855 577.5001,-151.8549"/>
</g>
<!-- HeaderComponent -->
<g id="node22" class="node">
<title>HeaderComponent</title>
<polygon fill="#ffffb3" stroke="#000000" points="503.7437,-122 382.2563,-122 382.2563,-86 503.7437,-86 503.7437,-122"/>
<text text-anchor="middle" x="443" y="-99.8" font-family="Times,serif" font-size="14.00" fill="#000000">HeaderComponent</text>
</g>
<!-- HeaderComponent&#45;&gt;UiModule -->
<g id="edge20" class="edge">
<title>HeaderComponent&#45;&gt;UiModule</title>
<path fill="none" stroke="#000000" d="M443,-122.0348C443,-141.5762 443,-170 443,-170 443,-170 534.3808,-170 534.3808,-170"/>
<polygon fill="#000000" stroke="#000000" points="534.3809,-173.5001 544.3808,-170 534.3808,-166.5001 534.3809,-173.5001"/>
</g>
<!-- NavComponent -->
<g id="node23" class="node">
<title>NavComponent</title>
<polygon fill="#ffffb3" stroke="#000000" points="364.1542,-122 259.8458,-122 259.8458,-86 364.1542,-86 364.1542,-122"/>
<text text-anchor="middle" x="312" y="-99.8" font-family="Times,serif" font-size="14.00" fill="#000000">NavComponent</text>
</g>
<!-- NavComponent&#45;&gt;UiModule -->
<g id="edge21" class="edge">
<title>NavComponent&#45;&gt;UiModule</title>
<path fill="none" stroke="#000000" d="M312,-122.0449C312,-143.6623 312,-177 312,-177 312,-177 534.4415,-177 534.4415,-177"/>
<polygon fill="#000000" stroke="#000000" points="534.4415,-180.5001 544.4415,-177 534.4415,-173.5001 534.4415,-180.5001"/>
</g>
<!-- UiComponent -->
<g id="node24" class="node">
<title>UiComponent</title>
<polygon fill="#ffffb3" stroke="#000000" points="241.8302,-122 146.1698,-122 146.1698,-86 241.8302,-86 241.8302,-122"/>
<text text-anchor="middle" x="194" y="-99.8" font-family="Times,serif" font-size="14.00" fill="#000000">UiComponent</text>
</g>
<!-- UiComponent&#45;&gt;UiModule -->
<g id="edge22" class="edge">
<title>UiComponent&#45;&gt;UiModule</title>
<path fill="none" stroke="#000000" d="M194,-122.1532C194,-145.7566 194,-184 194,-184 194,-184 534.2431,-184 534.2431,-184"/>
<polygon fill="#000000" stroke="#000000" points="534.2431,-187.5001 544.2431,-184 534.243,-180.5001 534.2431,-187.5001"/>
</g>
</g>
</svg>
